<?xml version="1.0" encoding="UTF-8" standalone="no"?>
<!-- Created with Inkscape (http://www.inkscape.org/) -->

<svg
   width="5.8677783mm"
   height="3.2777767mm"
   viewBox="0 0 5.8677783 3.2777767"
   version="1.1"
   id="svg5"
   xml:space="preserve"
   inkscape:version="1.2.2 (732a01da63, 2022-12-09)"
   sodipodi:docname="favicon.svg"
   xmlns:inkscape="http://www.inkscape.org/namespaces/inkscape"
   xmlns:sodipodi="http://sodipodi.sourceforge.net/DTD/sodipodi-0.dtd"
   xmlns="http://www.w3.org/2000/svg"
   xmlns:svg="http://www.w3.org/2000/svg"><sodipodi:namedview
     id="namedview7"
     pagecolor="#ffffff"
     bordercolor="#000000"
     borderopacity="0.25"
     inkscape:showpageshadow="2"
     inkscape:pageopacity="0.0"
     inkscape:pagecheckerboard="0"
     inkscape:deskcolor="#d1d1d1"
     inkscape:document-units="mm"
     showgrid="false"
     inkscape:zoom="8.7585214"
     inkscape:cx="8.1063911"
     inkscape:cy="12.730459"
     inkscape:window-width="1920"
     inkscape:window-height="1001"
     inkscape:window-x="-9"
     inkscape:window-y="1341"
     inkscape:window-maximized="1"
     inkscape:current-layer="layer1" /><defs
     id="defs2" /><g
     inkscape:label="Layer 1"
     inkscape:groupmode="layer"
     id="layer1"
     transform="translate(-57.917398,-132.17654)"><g
       id="g5308"><g
         aria-label="~"
         id="g5302"
         style="font-size:8.46667px;line-height:0.8;font-family:'Lucida Calligraphy';-inkscape-font-specification:'Lucida Calligraphy, Normal';text-align:center;text-anchor:middle;fill:#ffffff;stroke:#ff3e00;stroke-width:1;stroke-linejoin:round;stroke-dasharray:none;stroke-opacity:1"
         transform="rotate(19.849876,57.304108,138.88865)"><path
           d="m 56.560311,133.54973 c 0.12489,-0.47759 0.328096,-0.98696 0.768834,-1.25426 0.285728,-0.16799 0.65032,-0.20218 0.955456,-0.065 0.581915,0.2222 1.070149,0.63333 1.657013,0.84372 0.210287,0.0813 0.464464,0.0757 0.641302,-0.0785 0.213935,-0.17281 0.345134,-0.42264 0.454643,-0.66966 0.08544,0 0.170877,0 0.256315,0 -0.143722,0.47108 -0.367782,0.96994 -0.816956,1.21984 -0.340953,0.19022 -0.76154,0.15688 -1.108056,-4e-4 -0.538031,-0.22908 -1.004077,-0.6015 -1.553378,-0.80649 -0.26155,-0.11123 -0.547369,0.0472 -0.700224,0.26203 -0.128731,0.16511 -0.220573,0.35544 -0.298633,0.54872 -0.08544,0 -0.170877,0 -0.256316,0 z"
           id="path5300"
           style="stroke:#ff3e00;stroke-width:1;stroke-dasharray:none;stroke-opacity:1" /></g><g
         aria-label="~"
         id="text5199"
         style="font-size:8.46667px;line-height:0.8;font-family:'Lucida Calligraphy';-inkscape-font-specification:'Lucida Calligraphy, Normal';text-align:center;text-anchor:middle;fill:#ffffff;stroke-width:1.2;stroke-linejoin:round"
         transform="rotate(19.849876,57.304108,138.88865)"><path
           d="m 56.560311,133.54973 c 0.12489,-0.47759 0.328096,-0.98696 0.768834,-1.25426 0.285728,-0.16799 0.65032,-0.20218 0.955456,-0.065 0.581915,0.2222 1.070149,0.63333 1.657013,0.84372 0.210287,0.0813 0.464464,0.0757 0.641302,-0.0785 0.213935,-0.17281 0.345134,-0.42264 0.454643,-0.66966 0.08544,0 0.170877,0 0.256315,0 -0.143722,0.47108 -0.367782,0.96994 -0.816956,1.21984 -0.340953,0.19022 -0.76154,0.15688 -1.108056,-4e-4 -0.538031,-0.22908 -1.004077,-0.6015 -1.553378,-0.80649 -0.26155,-0.11123 -0.547369,0.0472 -0.700224,0.26203 -0.128731,0.16511 -0.220573,0.35544 -0.298633,0.54872 -0.08544,0 -0.170877,0 -0.256316,0 z"
           id="path5201" /></g></g></g></svg>
